<svg width="32" height="26" viewBox="0 0 32 26" fill="none" xmlns="http://www.w3.org/2000/svg">
<path d="M29.9061 3.39777C29.4341 3.20116 28.9143 3.14948 28.4128 3.24931C27.9113 3.34914 27.451 3.59597 27.0903 3.95835L23.75 7.2986L17.8264 1.37502C17.342 0.890717 16.685 0.618652 16 0.618652C15.315 0.618652 14.658 0.890717 14.1736 1.37502L8.25 7.2986L4.90975 3.95835C4.54847 3.59718 4.08821 3.35123 3.58716 3.25159C3.08612 3.15196 2.56678 3.20312 2.09481 3.3986C1.62283 3.59408 1.21941 3.92511 0.935546 4.34983C0.651678 4.77456 0.500109 5.27391 0.5 5.78477V19.4584C0.502051 21.1706 1.18314 22.8121 2.39387 24.0228C3.6046 25.2335 5.24611 25.9146 6.95833 25.9167H25.0417C26.7539 25.9146 28.3954 25.2335 29.6061 24.0228C30.8169 22.8121 31.4979 21.1706 31.5 19.4584V5.78477C31.5001 5.27387 31.3488 4.77441 31.0651 4.34953C30.7813 3.92465 30.378 3.59344 29.9061 3.39777ZM28.9167 19.4584C28.9167 20.4861 28.5084 21.4717 27.7817 22.1984C27.055 22.9251 26.0694 23.3334 25.0417 23.3334H6.95833C5.93062 23.3334 4.945 22.9251 4.21829 22.1984C3.49159 21.4717 3.08333 20.4861 3.08333 19.4584V5.78477L7.33679 10.0382C7.57901 10.2804 7.9075 10.4164 8.25 10.4164C8.5925 10.4164 8.92098 10.2804 9.16321 10.0382L16 3.20143L22.8368 10.0382C23.079 10.2804 23.4075 10.4164 23.75 10.4164C24.0925 10.4164 24.421 10.2804 24.6632 10.0382L28.9167 5.78477V19.4584Z" fill="#CE1449"/>
</svg>
