<svg width="31" height="31" viewBox="0 0 31 31" fill="none" xmlns="http://www.w3.org/2000/svg">
<g clip-path="url(#clip0_92_627)">
<path d="M24.0005 2.76417L15.9082 0.0658809C15.6433 -0.0223672 15.3568 -0.0223672 15.0919 0.0658809L6.99959 2.76417C5.71296 3.19156 4.59375 4.01355 3.80096 5.11334C3.00817 6.21313 2.58213 7.5348 2.58338 8.89055V15.5C2.58338 25.2689 14.4667 30.6642 14.9756 30.8889C15.1407 30.9623 15.3194 31.0002 15.5 31.0002C15.6807 31.0002 15.8594 30.9623 16.0245 30.8889C16.5334 30.6642 28.4167 25.2689 28.4167 15.5V8.89055C28.418 7.5348 27.9919 6.21313 27.1991 5.11334C26.4063 4.01355 25.2871 3.19156 24.0005 2.76417ZM25.8334 15.5C25.8334 22.546 17.6713 27.1676 15.5 28.2733C13.3262 27.1715 5.16671 22.5641 5.16671 15.5V8.89055C5.16679 8.07716 5.42281 7.28441 5.89852 6.62463C6.37423 5.96485 7.0455 5.4715 7.81721 5.21446L15.5 2.65309L23.1829 5.21446C23.9546 5.4715 24.6259 5.96485 25.1016 6.62463C25.5773 7.28441 25.8333 8.07716 25.8334 8.89055V15.5Z" fill="#CE1449"/>
<path d="M19.7625 10.7208L14.353 16.1458L11.4545 13.1233C11.3382 12.9962 11.1976 12.8935 11.041 12.8215C10.8844 12.7495 10.715 12.7096 10.5427 12.7041C10.3705 12.6986 10.1988 12.7276 10.038 12.7894C9.87707 12.8513 9.7302 12.9447 9.60598 13.0641C9.48176 13.1836 9.3827 13.3268 9.31465 13.4851C9.24661 13.6435 9.21094 13.8138 9.20975 13.9862C9.20856 14.1585 9.24188 14.3294 9.30774 14.4886C9.3736 14.6479 9.47066 14.7924 9.59323 14.9136L12.5718 18.0136C12.7939 18.2535 13.0624 18.4459 13.361 18.5791C13.6596 18.7123 13.9822 18.7836 14.3091 18.7886H14.3517C14.6721 18.7896 14.9896 18.727 15.2856 18.6044C15.5816 18.4818 15.8503 18.3016 16.0761 18.0743L21.5941 12.5563C21.7146 12.436 21.8103 12.2932 21.8756 12.136C21.9409 11.9788 21.9746 11.8102 21.9748 11.6399C21.975 11.4697 21.9416 11.3011 21.8766 11.1437C21.8116 10.9863 21.7163 10.8433 21.596 10.7228C21.4758 10.6023 21.333 10.5066 21.1757 10.4413C21.0185 10.376 20.8499 10.3423 20.6797 10.3421C20.5094 10.3419 20.3408 10.3752 20.1834 10.4402C20.0261 10.5052 19.883 10.6006 19.7625 10.7208Z" fill="#CE1449"/>
</g>
<defs>
<clipPath id="clip0_92_627">
<rect width="31" height="31" fill="white"/>
</clipPath>
</defs>
</svg>
