<svg width="31" height="31" viewBox="0 0 31 31" fill="none" xmlns="http://www.w3.org/2000/svg">
<g clip-path="url(#clip0_92_635)">
<path d="M19.375 0H11.625C9.91273 0.00205098 8.27122 0.683139 7.06049 1.89387C5.84977 3.1046 5.16868 4.74611 5.16663 6.45833V24.5417C5.16868 26.2539 5.84977 27.8954 7.06049 29.1061C8.27122 30.3169 9.91273 30.9979 11.625 31H19.375C21.0872 30.9979 22.7287 30.3169 23.9394 29.1061C25.1502 27.8954 25.8312 26.2539 25.8333 24.5417V6.45833C25.8312 4.74611 25.1502 3.1046 23.9394 1.89387C22.7287 0.683139 21.0872 0.00205098 19.375 0V0ZM11.625 2.58333H19.375C20.4027 2.58333 21.3883 2.99159 22.115 3.71829C22.8417 4.445 23.25 5.43062 23.25 6.45833V20.6667H7.74996V6.45833C7.74996 5.43062 8.15822 4.445 8.88492 3.71829C9.61162 2.99159 10.5972 2.58333 11.625 2.58333ZM19.375 28.4167H11.625C10.5972 28.4167 9.61162 28.0084 8.88492 27.2817C8.15822 26.555 7.74996 25.5694 7.74996 24.5417V23.25H23.25V24.5417C23.25 25.5694 22.8417 26.555 22.115 27.2817C21.3883 28.0084 20.4027 28.4167 19.375 28.4167Z" fill="#CE1449"/>
<path d="M15.5 27.125C16.2134 27.125 16.7917 26.5467 16.7917 25.8333C16.7917 25.12 16.2134 24.5417 15.5 24.5417C14.7867 24.5417 14.2084 25.12 14.2084 25.8333C14.2084 26.5467 14.7867 27.125 15.5 27.125Z" fill="#CE1449"/>
</g>
<defs>
<clipPath id="clip0_92_635">
<rect width="31" height="31" fill="white"/>
</clipPath>
</defs>
</svg>
