<svg width="26" height="26" viewBox="0 0 26 26" fill="none" xmlns="http://www.w3.org/2000/svg">
<g clip-path="url(#clip0_45_57)">
<path d="M19.5 9.81933C19.5002 9.38357 19.4141 8.95209 19.2468 8.54974C19.0794 8.14739 18.8341 7.78213 18.525 7.475C17.8925 6.87142 17.0517 6.53466 16.1774 6.53466C15.3031 6.53466 14.4624 6.87142 13.8299 7.475L0.97502 20.3331C0.388307 20.9622 0.068748 21.7945 0.0836924 22.6546C0.0986368 23.5147 0.446917 24.3355 1.05513 24.9438C1.66334 25.5522 2.48398 25.9006 3.34409 25.9158C4.2042 25.9309 5.0366 25.6116 5.66585 25.025L18.525 12.1669C18.8346 11.8595 19.0802 11.4937 19.2476 11.0907C19.4149 10.6878 19.5007 10.2557 19.5 9.81933ZM4.13402 23.4953C3.91502 23.7041 3.62407 23.8205 3.32152 23.8205C3.01897 23.8205 2.72802 23.7041 2.50902 23.4953C2.29389 23.2797 2.17307 22.9875 2.17307 22.6828C2.17307 22.3782 2.29389 22.086 2.50902 21.8703L10.9254 13.4528L12.5559 15.0832L4.13402 23.4953ZM16.9954 10.634L14.0834 13.5471L12.4584 11.9167L15.3714 9.00467C15.4753 8.88603 15.6024 8.78999 15.7449 8.72249C15.8873 8.65498 16.0422 8.61745 16.1997 8.61222C16.3573 8.60699 16.5143 8.63417 16.6609 8.69208C16.8076 8.74999 16.9407 8.83739 17.0522 8.94887C17.1637 9.06036 17.2511 9.19355 17.309 9.34019C17.3669 9.48683 17.3941 9.6438 17.3889 9.80137C17.3837 9.95895 17.3461 10.1138 17.2786 10.2562C17.2111 10.3987 17.1151 10.5258 16.9964 10.6297L16.9954 10.634ZM5.26827 3.09291L6.94744 2.61408L7.42627 0.934915C7.50341 0.665473 7.66618 0.428475 7.88998 0.259759C8.11377 0.091044 8.38642 -0.000213623 8.66669 -0.000213623C8.94695 -0.000213623 9.2196 0.091044 9.44339 0.259759C9.66719 0.428475 9.82996 0.665473 9.9071 0.934915L10.3859 2.61408L12.0651 3.09291C12.3345 3.17005 12.5715 3.33283 12.7403 3.55662C12.909 3.78042 13.0002 4.05306 13.0002 4.33333C13.0002 4.6136 12.909 4.88624 12.7403 5.11004C12.5715 5.33383 12.3345 5.49661 12.0651 5.57375L10.3859 6.05258L9.9071 7.73175C9.82996 8.00119 9.66719 8.23819 9.44339 8.4069C9.2196 8.57562 8.94695 8.66688 8.66669 8.66688C8.38642 8.66688 8.11377 8.57562 7.88998 8.4069C7.66618 8.23819 7.50341 8.00119 7.42627 7.73175L6.94744 6.05258L5.26827 5.57375C4.99883 5.49661 4.76183 5.33383 4.59311 5.11004C4.4244 4.88624 4.33314 4.6136 4.33314 4.33333C4.33314 4.05306 4.4244 3.78042 4.59311 3.55662C4.76183 3.33283 4.99883 3.17005 5.26827 3.09291ZM25.0651 18.5737L23.3859 19.0526L22.9071 20.7317C22.83 21.0012 22.6672 21.2382 22.4434 21.4069C22.2196 21.5756 21.947 21.6669 21.6667 21.6669C21.3864 21.6669 21.1138 21.5756 20.89 21.4069C20.6662 21.2382 20.5034 21.0012 20.4263 20.7317L19.9474 19.0526L18.2683 18.5737C17.9988 18.4966 17.7618 18.3338 17.5931 18.11C17.4244 17.8862 17.3331 17.6136 17.3331 17.3333C17.3331 17.0531 17.4244 16.7804 17.5931 16.5566C17.7618 16.3328 17.9988 16.1701 18.2683 16.0929L19.9474 15.6141L20.4263 13.9349C20.5034 13.6655 20.6662 13.4285 20.89 13.2598C21.1138 13.091 21.3864 12.9998 21.6667 12.9998C21.947 12.9998 22.2196 13.091 22.4434 13.2598C22.6672 13.4285 22.83 13.6655 22.9071 13.9349L23.3859 15.6141L25.0651 16.0929C25.3345 16.1701 25.5715 16.3328 25.7403 16.5566C25.909 16.7804 26.0002 17.0531 26.0002 17.3333C26.0002 17.6136 25.909 17.8862 25.7403 18.11C25.5715 18.3338 25.3345 18.4966 25.0651 18.5737ZM19.2346 2.70833L20.7036 2.28908L21.125 0.817915C21.1936 0.583716 21.3362 0.378051 21.5315 0.231737C21.7269 0.0854229 21.9643 0.00634064 22.2084 0.00634064C22.4524 0.00634064 22.6899 0.0854229 22.8852 0.231737C23.0805 0.378051 23.2231 0.583716 23.2917 0.817915L23.7109 2.28691L25.1799 2.70616C25.4141 2.77475 25.6198 2.91738 25.7661 3.11269C25.9124 3.308 25.9915 3.54546 25.9915 3.7895C25.9915 4.03353 25.9124 4.271 25.7661 4.4663C25.6198 4.66161 25.4141 4.80424 25.1799 4.87283L23.7109 5.29208L23.2917 6.76433C23.2231 6.99853 23.0805 7.2042 22.8852 7.35051C22.6899 7.49682 22.4524 7.5759 22.2084 7.5759C21.9643 7.5759 21.7269 7.49682 21.5315 7.35051C21.3362 7.2042 21.1936 6.99853 21.125 6.76433L20.7058 5.29641L19.2346 4.875C19.0004 4.80641 18.7947 4.66378 18.6484 4.46847C18.5021 4.27316 18.423 4.0357 18.423 3.79166C18.423 3.54763 18.5021 3.31017 18.6484 3.11486C18.7947 2.91955 19.0004 2.77692 19.2346 2.70833Z" fill="#626262"/>
</g>
<defs>
<clipPath id="clip0_45_57">
<rect width="26" height="26" fill="white"/>
</clipPath>
</defs>
</svg>
